<svg xmlns="http://www.w3.org/2000/svg" xmlns:xlink="http://www.w3.org/1999/xlink" width="99" zoomAndPan="magnify" viewBox="0 0 74.25 74.249997" height="99" preserveAspectRatio="xMidYMid meet" version="1.0"><defs><clipPath id="378b11074d"><path d="M 46.058594 21.488281 L 55.558594 21.488281 L 55.558594 51.1875 L 46.058594 51.1875 Z M 46.058594 21.488281 " clip-rule="nonzero"/></clipPath><clipPath id="c47f155652"><path d="M 17 21.488281 L 27 21.488281 L 27 51.1875 L 17 51.1875 Z M 17 21.488281 " clip-rule="nonzero"/></clipPath></defs><path fill="#231f20" d="M 41.523438 31.347656 C 42.539062 31.78125 43.425781 32.550781 44.066406 33.496094 C 44.714844 34.441406 45.105469 35.578125 45.199219 36.734375 C 45.285156 37.886719 45.097656 39.070312 44.609375 40.109375 C 44.132812 41.148438 43.378906 42.054688 42.445312 42.644531 C 43.078125 41.742188 43.5625 40.804688 43.859375 39.820312 C 44.148438 38.839844 44.265625 37.820312 44.175781 36.816406 C 44.027344 34.792969 43.070312 32.898438 41.523438 31.347656 " fill-opacity="1" fill-rule="nonzero"/><path fill="#231f20" d="M 42.574219 28.820312 C 43.96875 29.476562 45.207031 30.523438 46.105469 31.828125 C 47.019531 33.121094 47.578125 34.671875 47.75 36.257812 C 47.921875 37.84375 47.695312 39.472656 47.085938 40.9375 C 46.492188 42.410156 45.492188 43.691406 44.269531 44.628906 C 46.285156 42.296875 47.28125 39.285156 46.945312 36.34375 C 46.660156 33.398438 45.027344 30.671875 42.574219 28.820312 " fill-opacity="1" fill-rule="nonzero"/><path fill="#231f20" d="M 43.789062 26.402344 C 45.578125 27.300781 47.125 28.695312 48.269531 30.375 C 49.421875 32.054688 50.113281 34.039062 50.328125 36.070312 C 50.515625 38.101562 50.230469 40.183594 49.449219 42.066406 C 48.664062 43.941406 47.414062 45.609375 45.839844 46.847656 C 47.246094 45.425781 48.355469 43.742188 49.023438 41.898438 C 49.691406 40.054688 49.960938 38.070312 49.738281 36.128906 C 49.578125 34.179688 48.917969 32.289062 47.886719 30.621094 C 46.863281 28.949219 45.449219 27.511719 43.789062 26.402344 " fill-opacity="1" fill-rule="nonzero"/><path fill="#231f20" d="M 45.136719 24.0625 C 47.285156 25.234375 49.148438 26.949219 50.5 29.015625 C 51.859375 31.078125 52.691406 33.488281 52.914062 35.953125 C 53.125 38.421875 52.757812 40.941406 51.800781 43.21875 C 50.839844 45.5 49.3125 47.519531 47.410156 49.058594 C 49.21875 47.414062 50.640625 45.363281 51.535156 43.109375 C 52.417969 40.855469 52.777344 38.394531 52.542969 35.988281 C 52.355469 33.574219 51.539062 31.226562 50.257812 29.171875 C 48.976562 27.117188 47.214844 25.351562 45.136719 24.0625 " fill-opacity="1" fill-rule="nonzero"/><g clip-path="url(#378b11074d)"><path fill="#231f20" d="M 46.0625 21.488281 C 48.640625 22.863281 50.878906 24.890625 52.507812 27.332031 C 54.152344 29.761719 55.179688 32.609375 55.46875 35.535156 C 55.761719 38.460938 55.328125 41.453125 54.222656 44.171875 C 53.117188 46.894531 51.320312 49.316406 49.070312 51.1875 C 51.28125 49.273438 53.035156 46.839844 54.128906 44.132812 C 55.210938 41.421875 55.625 38.449219 55.3125 35.550781 C 55.046875 32.648438 54.042969 29.8125 52.421875 27.386719 C 50.808594 24.957031 48.613281 22.917969 46.0625 21.488281 " fill-opacity="1" fill-rule="nonzero"/></g><path fill="#231f20" d="M 31.230469 31.347656 C 29.679688 32.898438 28.722656 34.792969 28.574219 36.816406 C 28.484375 37.820312 28.601562 38.839844 28.890625 39.820312 C 29.1875 40.804688 29.671875 41.742188 30.304688 42.644531 C 29.371094 42.054688 28.617188 41.148438 28.140625 40.109375 C 27.652344 39.070312 27.464844 37.886719 27.550781 36.734375 C 27.644531 35.578125 28.035156 34.441406 28.683594 33.496094 C 29.324219 32.550781 30.210938 31.78125 31.230469 31.347656 " fill-opacity="1" fill-rule="nonzero"/><path fill="#231f20" d="M 30.175781 28.820312 C 27.722656 30.671875 26.089844 33.398438 25.804688 36.34375 C 25.46875 39.285156 26.464844 42.296875 28.480469 44.628906 C 27.257812 43.691406 26.257812 42.410156 25.664062 40.9375 C 25.054688 39.472656 24.828125 37.84375 25 36.257812 C 25.175781 34.671875 25.730469 33.121094 26.644531 31.828125 C 27.542969 30.523438 28.78125 29.476562 30.175781 28.820312 " fill-opacity="1" fill-rule="nonzero"/><path fill="#231f20" d="M 28.960938 26.402344 C 27.300781 27.511719 25.886719 28.949219 24.863281 30.621094 C 23.832031 32.289062 23.171875 34.179688 23.011719 36.128906 C 22.789062 38.070312 23.0625 40.054688 23.726562 41.898438 C 24.394531 43.742188 25.503906 45.425781 26.910156 46.847656 C 25.335938 45.609375 24.085938 43.941406 23.300781 42.066406 C 22.519531 40.183594 22.234375 38.101562 22.421875 36.070312 C 22.636719 34.039062 23.328125 32.054688 24.480469 30.375 C 25.625 28.695312 27.171875 27.300781 28.960938 26.402344 " fill-opacity="1" fill-rule="nonzero"/><path fill="#231f20" d="M 27.613281 24.0625 C 25.535156 25.351562 23.777344 27.117188 22.492188 29.171875 C 21.210938 31.226562 20.394531 33.574219 20.207031 35.988281 C 19.972656 38.394531 20.332031 40.855469 21.214844 43.109375 C 22.109375 45.363281 23.53125 47.414062 25.339844 49.058594 C 23.4375 47.519531 21.910156 45.5 20.949219 43.21875 C 19.992188 40.941406 19.625 38.421875 19.835938 35.953125 C 20.058594 33.488281 20.894531 31.078125 22.253906 29.015625 C 23.601562 26.949219 25.464844 25.234375 27.613281 24.0625 " fill-opacity="1" fill-rule="nonzero"/><g clip-path="url(#c47f155652)"><path fill="#231f20" d="M 26.6875 21.488281 C 24.136719 22.917969 21.941406 24.957031 20.328125 27.386719 C 18.707031 29.8125 17.703125 32.648438 17.4375 35.550781 C 17.128906 38.449219 17.539062 41.421875 18.625 44.132812 C 19.714844 46.839844 21.46875 49.273438 23.679688 51.1875 C 21.429688 49.316406 19.632812 46.894531 18.527344 44.171875 C 17.421875 41.453125 16.988281 38.460938 17.28125 35.535156 C 17.570312 32.609375 18.597656 29.761719 20.242188 27.332031 C 21.871094 24.890625 24.109375 22.863281 26.6875 21.488281 " fill-opacity="1" fill-rule="nonzero"/></g></svg>